<svg id="Layer_1" data-name="Layer 1" xmlns="http://www.w3.org/2000/svg" viewBox="0 0 64 64" fill='#c9c1ec'><title>burger</title><path d="M56,18.08h0A14.08,14.08,0,0,0,41.92,4H22.08A14.08,14.08,0,0,0,8,18.08H8A1.92,1.92,0,0,0,9.92,20H54.08A1.92,1.92,0,0,0,56,18.08ZM14.54,14.63a1,1,0,1,1,1-1A1,1,0,0,1,14.54,14.63Zm6.79.75a1,1,0,1,1,1-1A1,1,0,0,1,21.33,15.38Zm0-5.37a1,1,0,1,1,1-1A1,1,0,0,1,21.33,10Zm7.35,3a1,1,0,1,1,1-1A1,1,0,0,1,28.68,13Zm6.64,0a1,1,0,1,1,1-1A1,1,0,0,1,35.32,13Zm7.35,2.38a1,1,0,1,1,1-1A1,1,0,0,1,42.67,15.38Zm0-5.37a1,1,0,1,1,1-1A1,1,0,0,1,42.67,10Zm6.79,4.63a1,1,0,1,1,1-1A1,1,0,0,1,49.46,14.63Z"/>></svg>